<svg xmlns="http://www.w3.org/2000/svg" viewBox="0 0 160 160">
    <defs>
        <style>.cls-1{fill:#02a9ff;}.cls-1,.cls-2{fill-rule:evenodd;}.cls-2{fill:#0588c9;}.cls-3{fill:#221f20;}</style>
    </defs>
    <g id="main-header-logo-symbol" data-name="symbol">
        <path class="cls-1" d="M66.0395,131.944V115.333a4.16107,4.16107,0,0,0-4.154-4.153h-14.558a4.1535,4.1535,0,0,1-3.597-6.23l15.586-26.995,19.181-33.223,10.79-18.688a4.15349,4.15349,0,0,0-3.597-6.23H66.5095a4.05457,4.05457,0,0,0-3.597,2.077L.5715,129.868a4.05819,4.05819,0,0,0,0,4.153,4.05807,4.05807,0,0,0,3.597,2.076h57.717a4.16112,4.16112,0,0,0,4.154-4.153Z"></path>
        <path class="cls-2" d="M90.95649,115.333v16.611a4.16027,4.16027,0,0,0,4.153,4.153h57.718a4.15253,4.15253,0,0,0,3.596-6.229l-47.954-83.06a4.05676,4.05676,0,0,0-3.597-2.076h-19.181a4.15253,4.15253,0,0,0-3.597,6.229l15.585,26.994,15.586,26.995a4.1535,4.1535,0,0,1-3.597,6.23h-14.559a4.16022,4.16022,0,0,0-4.153,4.153Z"></path>
    </g>
</svg>