<svg viewBox="0 0 40.267 40.118" fill="none" xmlns="http://www.w3.org/2000/svg">
  <path d="M 29.789 11.657 L 20.2 0.105 C 19.999 -0.096 19.645 0.005 19.645 0.305 L 20.453 11.506 L 13.488 5.58 C 13.286 5.38 12.933 5.58 12.984 5.882 L 15.759 16.932 L 9.047 13.014 C 8.795 12.864 8.492 13.114 8.593 13.416 L 20.352 39.836 C 20.452 40.087 20.856 40.036 20.907 39.786 L 23.481 26.224 L 30.041 15.174 C 30.697 14.064 30.596 12.663 29.789 11.658 L 29.789 11.657 Z" fill="#F60"/>
  <path d="M 20.402 11.506 L 13.387 5.58 C 13.185 5.38 12.832 5.58 12.883 5.882 L 15.658 16.932 L 20.958 20.046 L 20.402 11.507 L 20.402 11.506 Z" fill="#E74030"/>
  <path d="M 20.503 33.958 C 20.403 34.26 19.998 34.209 19.948 33.908 L 15.708 16.931 L 8.946 12.963 C 8.694 12.813 8.391 13.063 8.492 13.365 L 20.251 39.785 C 20.351 40.035 20.755 39.985 20.806 39.735 L 23.38 26.173 L 23.33 26.223 L 20.503 33.958 L 20.503 33.958 Z" fill="#FAB418"/>
  <path d="M 20.503 33.958 L 23.43 26.223 L 22.118 28.383 C 21.967 28.634 21.563 28.533 21.563 28.233 L 21.008 20.045 L 15.708 16.931 L 19.948 33.908 C 19.998 34.209 20.402 34.26 20.503 33.958 L 20.503 33.958 Z" fill="#DE0732"/>
  <path d="M 29.688 11.657 L 20.099 0.104 C 19.948 -0.096 19.595 0.054 19.595 0.305 L 20.402 11.506 L 25.247 15.676 C 26.206 16.479 26.559 17.835 26.105 19.041 L 23.43 26.072 L 23.43 26.172 L 29.99 15.122 C 30.647 14.068 30.496 12.662 29.688 11.657 Z" fill="#F60"/>
  <path d="M 22.37 20.899 C 23.48 21.552 24.036 22.808 23.834 24.063 L 23.43 26.123 L 26.105 19.091 C 26.559 17.885 26.205 16.579 25.247 15.725 L 20.402 11.557 L 21.008 20.095 L 22.37 20.899 Z" fill="#DE0733"/>
  <path d="M 22.37 20.899 L 20.957 20.045 L 21.512 28.232 C 21.512 28.534 21.916 28.634 22.068 28.382 L 23.329 26.223 L 23.379 26.073 L 23.783 24.013 C 24.086 22.808 23.481 21.552 22.37 20.899 Z" fill="#CC1D46"/>
</svg>