<?xml version="1.0" encoding="UTF-8" standalone="no" ?>
<!DOCTYPE svg PUBLIC "-//W3C//DTD SVG 1.1//EN" "http://www.w3.org/Graphics/SVG/1.1/DTD/svg11.dtd">
<svg xmlns="http://www.w3.org/2000/svg" xmlns:xlink="http://www.w3.org/1999/xlink" version="1.1" width="1080" height="1080" viewBox="0 0 1080 1080" xml:space="preserve">
<desc>Created with Fabric.js 5.2.4</desc>
<defs>
</defs>
<g transform="matrix(1 0 0 1 540 540)" id="29efd7ee-4efc-426a-b8e7-3ea913acfd0f"  >
</g>
<g transform="matrix(1 0 0 1 540 540)" id="510e5e67-c4a5-406c-89fe-3b7de21e210f"  >
<rect style="stroke: none; stroke-width: 1; stroke-dasharray: none; stroke-linecap: butt; stroke-dashoffset: 0; stroke-linejoin: miter; stroke-miterlimit: 4; fill: rgb(255,255,255); fill-rule: nonzero; opacity: 1; visibility: hidden;" vector-effect="non-scaling-stroke"  x="-540" y="-540" rx="0" ry="0" width="1080" height="1080" />
</g>
<g transform="matrix(0 0 0 0 0 0)"  >
<g style=""   >
</g>
</g>
<g transform="matrix(3.57 0 0 3.57 540 540)"  >
<path style="stroke: rgb(0,0,0); stroke-width: 0; stroke-dasharray: none; stroke-linecap: butt; stroke-dashoffset: 0; stroke-linejoin: miter; stroke-miterlimit: 4; fill: rgb(254,80,0); fill-rule: nonzero; opacity: 1;" vector-effect="non-scaling-stroke"  transform=" translate(-150.4, -31.24)" d="M 110.844 55.646 L 100.797 40.715 C 100.039 39.565000000000005 100.319 38.021 101.47 37.263000000000005 L 101.498 37.263000000000005 C 106.101 34.176 108.992 28.647000000000006 108.992 22.276000000000003 C 108.992 11.358000000000004 99.87 2.7420000000000044 88.616 2.7420000000000044 L 64.452 2.7420000000000044 C 63.525999999999996 2.7420000000000044 62.796 3.4720000000000044 62.796 4.398000000000004 L 62.796 14.978000000000005 C 62.796 15.428000000000004 63.133 15.765000000000006 63.582 15.793000000000005 C 71.749 16.242000000000004 78.344 23.286000000000005 78.344 31.341000000000005 C 78.344 39.45100000000001 71.693 46.35600000000001 63.581999999999994 46.80500000000001 C 63.160999999999994 46.833000000000006 62.79599999999999 47.19800000000001 62.79599999999999 47.61900000000001 L 62.79599999999999 57.891000000000005 C 62.79599999999999 58.81700000000001 63.52599999999999 59.547000000000004 64.452 59.547000000000004 L 78.485 59.547000000000004 C 79.411 59.547000000000004 80.14 58.81700000000001 80.14 57.891000000000005 L 80.14 52.95100000000001 C 80.14 49.443000000000005 83.171 48.57300000000001 85.5 51.324000000000005 L 91.395 58.70400000000001 C 91.9226706653587 59.23548325286053 92.63811131566939 59.538252564211895 93.387 59.54700000000001 L 108.767 59.54700000000001 C 110.142 59.54700000000001 111.265 58.45200000000001 111.265 57.07700000000001 C 111.293 56.54400000000001 111.125 56.067000000000014 110.845 55.646000000000015 z M 118.562 2.686 L 130.742 2.686 C 131.66899999999998 2.686 132.398 3.416 132.398 4.342 L 132.398 57.835 C 132.398 58.761 131.668 59.491 130.742 59.491 L 118.56199999999998 59.491 C 117.63599999999998 59.491 116.90599999999998 58.761 116.90599999999998 57.835 L 116.90599999999998 4.342 C 116.90599999999998 3.4439999999999995 117.63599999999998 2.686 118.56199999999998 2.686 z M 152.156 16.719 L 139.33100000000002 16.719 C 138.43200000000002 16.719 137.675 15.989 137.675 15.091000000000001 L 137.675 4.37 C 137.675 3.444 138.405 2.7140000000000004 139.33100000000002 2.7140000000000004 L 181.82100000000003 2.7140000000000004 C 182.74800000000002 2.7140000000000004 183.47800000000004 3.4440000000000004 183.47800000000004 4.37 L 183.47800000000004 15.091000000000001 C 183.47800000000004 16.017 182.74800000000005 16.747 181.82200000000003 16.747 L 169.30500000000004 16.747 C 168.85500000000005 16.747 168.49100000000004 17.112 168.49100000000004 17.589 L 168.49100000000004 57.863 C 168.49100000000004 58.789 167.76100000000005 59.519 166.83500000000004 59.519 L 154.65500000000003 59.519 C 153.72800000000004 59.519 152.99800000000002 58.789 152.99800000000002 57.863 L 152.99800000000002 17.533 C 152.97493606377856 17.082520840235922 152.6070013774822 16.726821511678633 152.156 16.719 z M 190.634 2.686 L 229.224 2.686 C 230.15099999999998 2.686 230.88 3.416 230.88 4.342 L 230.88 14.979 C 230.88 15.905 230.15 16.634999999999998 229.224 16.634999999999998 L 205.313 16.634999999999998 C 205.08845263569415 16.630888880565227 204.87188969465168 16.718278548374673 204.7130841215132 16.877084121513192 C 204.55427854837467 17.03588969465171 204.4668888805652 17.252452635694155 204.47099999999998 17.476999999999997 L 204.47099999999998 23.650999999999996 C 204.47099999999998 24.100999999999996 204.83499999999998 24.464999999999996 205.28399999999996 24.464999999999996 L 227.51299999999998 24.464999999999996 C 228.43899999999996 24.464999999999996 229.16799999999998 25.194999999999997 229.16799999999998 26.120999999999995 L 229.16799999999998 35.522999999999996 C 229.16799999999998 36.449 228.438 37.178999999999995 227.51199999999997 37.178999999999995 L 205.31199999999998 37.178999999999995 C 204.86399999999998 37.178999999999995 204.47099999999998 37.54299999999999 204.47099999999998 37.992999999999995 L 204.47099999999998 44.980999999999995 C 204.47099999999998 45.42999999999999 204.86399999999998 45.794999999999995 205.313 45.794999999999995 L 229.86999999999998 45.794999999999995 C 230.79599999999996 45.794999999999995 231.52599999999998 46.52499999999999 231.52599999999998 47.45099999999999 L 231.52599999999998 57.834999999999994 C 231.52599999999998 58.760999999999996 230.796 59.49099999999999 229.86999999999998 59.49099999999999 L 190.634 59.49099999999999 C 189.708 59.49099999999999 188.97799999999998 58.760999999999996 188.97799999999998 57.834999999999994 L 188.97799999999998 4.342 C 188.97799999999998 3.4439999999999995 189.70799999999997 2.686 190.634 2.686 z M 266.86 1.872 C 249.51600000000002 1.872 235.567 15.063 235.567 31.285 C 235.567 47.507 249.51600000000002 60.613 266.86 60.613 C 284.289 60.613 298.237 47.479 298.237 31.285 C 298.21 15.09 284.29 1.872 266.86 1.872 z M 266.86 46.777 C 258.32800000000003 46.805 251.39600000000002 39.901 251.36800000000002 31.397 L 251.36800000000002 31.313 C 251.36800000000002 22.921 258.3 15.736999999999998 266.86 15.736999999999998 C 275.42 15.736999999999998 282.437 22.976999999999997 282.437 31.313 C 282.437 39.676 275.36400000000003 46.777 266.86 46.777 z M 33.524 1.872 C 42.364000000000004 1.872 50.278999999999996 5.633 55.92 11.667 C 56.537 12.341 56.510000000000005 13.379 55.836 13.997 L 55.78 14.052999999999999 L 47.753 20.759999999999998 C 47.107 21.293999999999997 46.153 21.264999999999997 45.536 20.676 C 42.325132300361126 17.532390792229936 38.0174767168951 15.760844123704953 33.52400000000001 15.736000000000002 C 24.964 15.735999999999997 18.031 22.247999999999998 18.031 31.144999999999996 C 18.031 40.041999999999994 24.964 46.467999999999996 33.524 46.467999999999996 C 38.016405317442164 46.43781974534862 42.32213962217861 44.667063213097705 45.536 41.528000000000006 C 46.153 40.939 47.107 40.882999999999996 47.753 41.417 L 55.78 48.152 C 56.481 48.742000000000004 56.565 49.78 56.004 50.482 C 55.976 50.51 55.976 50.538 55.948 50.538 C 50.307 56.544 42.392 60.333 33.552 60.333 C 16.432 60.333 2.567 48.04 2.567 31.173 C 2.567 14.305999999999997 16.404 1.8729999999999976 33.524 1.8729999999999976 z" stroke-linecap="round" />
</g>
</svg>