<?xml version="1.0" encoding="UTF-8" standalone="no" ?>
<!DOCTYPE svg PUBLIC "-//W3C//DTD SVG 1.1//EN" "http://www.w3.org/Graphics/SVG/1.1/DTD/svg11.dtd">
<svg xmlns="http://www.w3.org/2000/svg" xmlns:xlink="http://www.w3.org/1999/xlink" version="1.1" width="1080" height="1080" viewBox="0 0 1080 1080" xml:space="preserve">
<desc>Created with Fabric.js 5.2.4</desc>
<defs>
</defs>
<rect x="0" y="0" width="100%" height="100%" fill="transparent"></rect>
<g transform="matrix(1 0 0 1 540 540)" id="510e5e67-c4a5-406c-89fe-3b7de21e210f"  >
<rect style="stroke: none; stroke-width: 1; stroke-dasharray: none; stroke-linecap: butt; stroke-dashoffset: 0; stroke-linejoin: miter; stroke-miterlimit: 4; fill: rgb(255,255,255); fill-rule: nonzero; opacity: 1; visibility: hidden;" vector-effect="non-scaling-stroke"  x="-540" y="-540" rx="0" ry="0" width="1080" height="1080" />
</g>
<g transform="matrix(1 0 0 1 540 540)" id="29efd7ee-4efc-426a-b8e7-3ea913acfd0f"  >
</g>
<g transform="matrix(0 0 0 0 0 0)"  >
<g style=""   >
</g>
</g>
<g transform="matrix(0 0 0 0 0 0)"  >
<g style=""   >
</g>
</g>
<g transform="matrix(9.42 0 0 9.42 540 540)"  >
<g style="" vector-effect="non-scaling-stroke"   >
		<g transform="matrix(1 0 0 1 -4.48 -28.57)"  >
<path style="stroke: none; stroke-width: 1; stroke-dasharray: none; stroke-linecap: butt; stroke-dashoffset: 0; stroke-linejoin: miter; stroke-miterlimit: 4; fill: rgb(91,184,116); fill-rule: nonzero; opacity: 1;" vector-effect="non-scaling-stroke"  transform=" translate(-65.41, -42.39)" d="M 18.7 32.1 C 18.7 31.900000000000002 18.7 31.700000000000003 18.7 31.5 C 19.099999999999998 31.2 19 30.9 18.7 30.6 C 17.9 22.5 22.7 17.200000000000003 27.2 15.3 C 31.7 13.5 36.1 13.9 40.3 16.3 C 56.699999999999996 25.700000000000003 73.19999999999999 35.1 89.6 44.6 C 97.1 48.9 104.69999999999999 53.3 112.19999999999999 57.6 C 111.6 57.7 111.1 57.5 110.49999999999999 57.300000000000004 C 106.89999999999999 56.6 103.29999999999998 56.6 100.09999999999998 58.400000000000006 C 95 61.2 90 64.2 84.9 66.9 C 82.60000000000001 68.10000000000001 80.5 69.7 78 70.60000000000001 C 68 64.9 58.1 59.20000000000001 48.1 53.50000000000001 C 47.7 53.300000000000004 47.300000000000004 52.800000000000004 46.7 53.10000000000001 C 46.5 52.50000000000001 45.900000000000006 52.30000000000001 45.400000000000006 52.00000000000001 C 39.60000000000001 48.60000000000001 33.7 45.20000000000001 27.800000000000004 42.00000000000001 C 23.900000000000006 39.800000000000004 20.600000000000005 37.20000000000001 19.200000000000003 32.7 C 19.2 32.3 19.1 32.1 18.7 32.1 z" stroke-linecap="round" />
</g>
		<g transform="matrix(1 0 0 1 12.3 19.13)"  >
<path style="stroke: none; stroke-width: 1; stroke-dasharray: none; stroke-linecap: butt; stroke-dashoffset: 0; stroke-linejoin: miter; stroke-miterlimit: 4; fill: rgb(129,200,149); fill-rule: nonzero; opacity: 1;" vector-effect="non-scaling-stroke"  transform=" translate(-82.18, -90.08)" d="M 78 70.6 C 80.5 69.69999999999999 82.6 68.19999999999999 84.9 66.89999999999999 C 90 64.1 95.10000000000001 61.19999999999999 100.2 58.39999999999999 C 103.5 56.599999999999994 107.10000000000001 56.599999999999994 110.60000000000001 57.29999999999999 C 111.10000000000001 57.39999999999999 111.7 57.59999999999999 112.30000000000001 57.59999999999999 C 112.30000000000001 57.59999999999999 112.30000000000001 57.59999999999999 112.30000000000001 57.59999999999999 C 112.50000000000001 57.69999999999999 112.60000000000001 57.79999999999999 112.80000000000001 57.899999999999984 C 117.4 59.899999999999984 120.00000000000001 63.399999999999984 120.9 68.19999999999999 C 121.9 73.6 120.10000000000001 78.29999999999998 115.7 81.6 C 111.8 84.5 107.4 86.5 103.10000000000001 89 C 84.20000000000002 99.9 65.20000000000002 110.8 46.30000000000001 121.7 C 45.30000000000001 122.3 44.40000000000001 123 43.20000000000001 123.3 C 46.40000000000001 119.3 47.30000000000001 114.7 46.70000000000001 109.7 C 46.70000000000001 109 46.80000000000001 108.3 46.80000000000001 107.60000000000001 C 46.80000000000001 101.10000000000001 46.90000000000001 94.60000000000001 46.90000000000001 88.10000000000001 C 47.20000000000001 88.00000000000001 47.600000000000016 87.9 47.90000000000001 87.7 C 53.20000000000001 84.7 58.500000000000014 81.8 63.80000000000001 78.8 C 68.4 76.1 73.3 73.6 78 70.6 z" stroke-linecap="round" />
</g>
		<g transform="matrix(1 0 0 1 -37.23 0.19)"  >
<path style="stroke: none; stroke-width: 1; stroke-dasharray: none; stroke-linecap: butt; stroke-dashoffset: 0; stroke-linejoin: miter; stroke-miterlimit: 4; fill: rgb(52,167,83); fill-rule: nonzero; opacity: 1;" vector-effect="non-scaling-stroke"  transform=" translate(-32.65, -71.15)" d="M 46.7 88 C 46.7 94.5 46.7 101 46.6 107.5 C 46.6 108.2 46.5 108.9 46.5 109.6 C 45.3 108.3 45 106.6 44 105.1 C 39.3 98.39999999999999 28.9 97.39999999999999 23.1 103 C 20.900000000000002 105.1 19.700000000000003 107.7 18.700000000000003 110.4 C 18.700000000000003 110 18.6 109.7 18.6 109.30000000000001 C 18.6 83.80000000000001 18.6 58.20000000000001 18.6 32.70000000000002 C 18.6 32.40000000000002 18.6 32.20000000000002 18.6 31.900000000000016 C 19 31.900000000000016 19.1 32.100000000000016 19.200000000000003 32.500000000000014 C 20.500000000000004 37.000000000000014 23.800000000000004 39.600000000000016 27.800000000000004 41.80000000000001 C 33.7 45.000000000000014 39.5 48.500000000000014 45.400000000000006 51.80000000000001 C 45.900000000000006 52.10000000000001 46.400000000000006 52.30000000000001 46.7 52.90000000000001 C 46.7 64.7 46.7 76.4 46.7 88 z" stroke-linecap="round" />
</g>
		<g transform="matrix(1 0 0 1 -37.22 42.69)"  >
<path style="stroke: none; stroke-width: 1; stroke-dasharray: none; stroke-linecap: butt; stroke-dashoffset: 0; stroke-linejoin: miter; stroke-miterlimit: 4; fill: rgb(30,142,62); fill-rule: nonzero; opacity: 1;" vector-effect="non-scaling-stroke"  transform=" translate(-32.66, -113.65)" d="M 18.7 110.6 C 19.7 107.89999999999999 20.9 105.3 23.1 103.19999999999999 C 29 97.6 39.400000000000006 98.6 44 105.29999999999998 C 45 106.69999999999999 45.3 108.49999999999999 46.5 109.79999999999998 C 47.2 114.79999999999998 46.3 119.39999999999998 43 123.39999999999998 C 39.7 126.29999999999998 35.9 127.99999999999997 31.4 127.69999999999997 C 24.599999999999998 127.19999999999997 18.7 121.09999999999998 18.599999999999998 114.29999999999997 C 18.7 112.9 18.7 111.8 18.7 110.6 z" stroke-linecap="round" />
</g>
</g>
</g>
</svg>