<?xml version="1.0" encoding="UTF-8"?>
<svg xmlns="http://www.w3.org/2000/svg" height="2500" width="2500" viewBox="-1.633235433328256 7.0326093303156565 131.26574682416876 114.63439066968435">
  <linearGradient id="a" gradientUnits="userSpaceOnUse" x1="64" x2="64" y1="7.034" y2="120.789">
    <stop offset="0" stop-color="#4387fd"></stop>
    <stop offset="1" stop-color="#4683ea"></stop>
  </linearGradient>
  <path d="M27.79 115.217L1.54 69.749a11.499 11.499 0 0 1 0-11.499l26.25-45.467a11.5 11.5 0 0 1 9.96-5.75h52.5a11.5 11.5 0 0 1 9.959 5.75l26.25 45.467a11.499 11.499 0 0 1 0 11.5l-26.25 45.467a11.5 11.5 0 0 1-9.959 5.749h-52.5a11.499 11.499 0 0 1-9.96-5.75z" fill="url(#a)"></path>
  <path clip-path="url(#b)" d="M119.229 86.48L89.4 56.65 88 58.45l-49.7-12.6-1.5 15.9 4.7 4.7-2.9 3.55 1.35 10.4 45.85 45.85 12.36-.55z" opacity=".07"></path>
  <g fill="#fff">
    <path d="M89.4 45.6H38.6a1.4 1.4 0 0 0-1.4 1.4v13.6a1.4 1.4 0 0 0 1.4 1.4h50.8a1.4 1.4 0 0 0 1.4-1.4V47a1.4 1.4 0 0 0-1.4-1.4zM56 55.6H44v-3.2h12zm22.8 1.75a3.75 3.75 0 1 1 3.75-3.75 3.75 3.75 0 0 1-3.75 3.75zM89.4 66H38.6a1.4 1.4 0 0 0-1.4 1.4V81a1.4 1.4 0 0 0 1.4 1.4h50.8A1.4 1.4 0 0 0 90.8 81V67.4a1.4 1.4 0 0 0-1.4-1.4zM56 76H44v-3.2h12zm22.8 1.75a3.75 3.75 0 1 1 3.75-3.75 3.75 3.75 0 0 1-3.75 3.75z"></path>
  </g>
</svg>
