<?xml version="1.0" encoding="UTF-8" standalone="no" ?>
<!DOCTYPE svg PUBLIC "-//W3C//DTD SVG 1.1//EN" "http://www.w3.org/Graphics/SVG/1.1/DTD/svg11.dtd">
<svg xmlns="http://www.w3.org/2000/svg" xmlns:xlink="http://www.w3.org/1999/xlink" version="1.1" width="1080" height="1080" viewBox="0 0 1080 1080" xml:space="preserve">
<desc>Created with Fabric.js 5.2.4</desc>
<defs>
</defs>
<rect x="0" y="0" width="100%" height="100%" fill="transparent"></rect>
<g transform="matrix(1 0 0 1 540 540)" id="510e5e67-c4a5-406c-89fe-3b7de21e210f"  >
<rect style="stroke: none; stroke-width: 1; stroke-dasharray: none; stroke-linecap: butt; stroke-dashoffset: 0; stroke-linejoin: miter; stroke-miterlimit: 4; fill: rgb(255,255,255); fill-rule: nonzero; opacity: 1; visibility: hidden;" vector-effect="non-scaling-stroke"  x="-540" y="-540" rx="0" ry="0" width="1080" height="1080" />
</g>
<g transform="matrix(1 0 0 1 540 540)" id="29efd7ee-4efc-426a-b8e7-3ea913acfd0f"  >
</g>
<g transform="matrix(0 0 0 0 0 0)"  >
<g style=""   >
</g>
</g>
<g transform="matrix(1.34 0 0 1.34 540 540)"  >
<g style="" vector-effect="non-scaling-stroke"   >
		<g transform="matrix(1.55 0 0 1.55 0 0)"  >
<path style="stroke: none; stroke-width: 1; stroke-dasharray: none; stroke-linecap: butt; stroke-dashoffset: 0; stroke-linejoin: miter; stroke-miterlimit: 4; fill: rgb(255,252,0); fill-rule: nonzero; opacity: 1;" vector-effect="non-scaling-stroke"  transform=" translate(-404.67, -296.6)" d="M 147.553 423.021 L 147.553 423.04400000000004 C 147.861 434.468 147.956 445.958 149.883 457.312 C 151.925 469.324 154.84400000000002 481.03700000000003 160.413 491.939 C 167.942 506.69500000000005 178.282 519.1560000000001 191.334 529.335 C 200.705 536.644 210.942 542.446 222.274 546.106 C 238.798 551.436 255.845 553.479 273.141 553.579 C 283.932 553.6469999999999 294.716 553.9169999999999 305.511 553.872 C 383.906 553.5419999999999 462.303 554.438 540.7 553.3879999999999 C 551.1030000000001 553.247 561.336 551.978 571.546 550.1109999999999 C 591.115 546.5289999999999 608.4100000000001 538.1789999999999 623.2070000000001 524.9779999999998 C 640.4520000000001 509.59699999999987 652.0870000000001 490.77299999999985 657.339 468.05399999999986 C 660.7760000000001 453.20399999999984 661.6360000000001 438.13799999999986 661.783 423.0189999999999 L 661.783 420.0029999999999 C 661.783 418.83299999999986 661.338 163.11099999999988 661.297 159.73099999999988 C 661.182 150.44599999999988 660.498 141.23099999999988 658.7570000000001 132.09499999999989 C 656.6400000000001 120.96199999999989 653.6490000000001 110.11399999999989 648.3180000000001 100.04199999999989 C 642.6890000000001 89.40099999999988 635.6380000000001 79.83299999999988 626.9170000000001 71.4719999999999 C 613.5580000000001 58.66199999999989 598.1420000000002 49.602999999999895 580.1950000000002 44.81099999999989 C 563.9850000000001 40.483999999999895 547.4480000000002 39.5259999999999 530.7900000000002 39.5409999999999 C 530.7630000000001 39.5369999999999 530.7000000000002 39.367999999999896 530.6960000000001 39.285999999999895 L 278.56 39.285999999999895 C 278.555 39.37199999999989 278.552 39.45799999999989 278.546 39.5409999999999 C 269.092 39.7139999999999 259.62399999999997 39.642999999999894 250.218 40.8089999999999 C 239.914 42.0899999999999 229.709 44.0189999999999 219.956 47.620999999999896 C 204.594 53.3029999999999 191.24699999999999 62.15299999999989 179.846 73.9679999999999 C 166.929 87.3539999999999 157.824 102.83499999999991 152.993 120.86199999999991 C 148.683 136.9459999999999 147.745 153.3499999999999 147.722 169.86999999999992" stroke-linecap="round" />
</g>
		<g transform="matrix(1.55 0 0 1.55 -0.06 0)"  >
<path style="stroke: none; stroke-width: 1; stroke-dasharray: none; stroke-linecap: butt; stroke-dashoffset: 0; stroke-linejoin: miter; stroke-miterlimit: 4; fill: rgb(255,255,255); fill-rule: nonzero; opacity: 1;" vector-effect="non-scaling-stroke"  transform=" translate(-404.63, -296.6)" d="M 407.001 473.488 C 405.933 473.488 404.914 473.449 404.13899999999995 473.412 C 403.52399999999994 473.465 402.88899999999995 473.488 402.25299999999993 473.488 C 379.8159999999999 473.488 364.8139999999999 462.881 351.57499999999993 453.515 C 342.08599999999996 446.812 333.13699999999994 440.484 322.6529999999999 438.74 C 317.5039999999999 437.886 312.3819999999999 437.45300000000003 307.4329999999999 437.45300000000003 C 298.5159999999999 437.45300000000003 291.4689999999999 438.836 286.3239999999999 439.84200000000004 C 283.1579999999999 440.45900000000006 280.4279999999999 440.99000000000007 278.31799999999987 440.99000000000007 C 276.1079999999999 440.99000000000007 273.4229999999999 440.50000000000006 272.30399999999986 436.6790000000001 C 271.41699999999986 433.6650000000001 270.78099999999984 430.74500000000006 270.16699999999986 427.9330000000001 C 268.63099999999986 420.9060000000001 267.5169999999999 416.61700000000013 264.88599999999985 416.2100000000001 C 236.74499999999986 411.8680000000001 220.11799999999985 405.4720000000001 216.80599999999987 397.7260000000001 C 216.45899999999986 396.9120000000001 216.26499999999987 396.09300000000013 216.22199999999987 395.28300000000013 C 216.09299999999988 392.9740000000001 217.72299999999987 390.9490000000001 219.99899999999985 390.5720000000001 C 242.34699999999987 386.8920000000001 262.21799999999985 375.0800000000001 279.0629999999999 355.4530000000001 C 292.11199999999985 340.2580000000001 298.51999999999987 325.74000000000007 299.20799999999986 324.1370000000001 C 299.23799999999983 324.0650000000001 299.27299999999985 323.9890000000001 299.30899999999986 323.92000000000013 C 302.55599999999987 317.3320000000001 303.2019999999998 311.6390000000001 301.23499999999984 307.00400000000013 C 297.60899999999987 298.45300000000015 285.59999999999985 294.64300000000014 277.65499999999986 292.1220000000001 C 275.67899999999986 291.4970000000001 273.80999999999983 290.90500000000014 272.32099999999986 290.31400000000014 C 265.27799999999985 287.53200000000015 253.69499999999985 281.6540000000001 255.23799999999986 273.5410000000001 C 256.36199999999985 267.6250000000001 264.18699999999984 263.5050000000001 270.51099999999985 263.5050000000001 C 272.2669999999998 263.5050000000001 273.82299999999987 263.8130000000001 275.13299999999987 264.4280000000001 C 282.2789999999999 267.7760000000001 288.70799999999986 269.4730000000001 294.23699999999985 269.4730000000001 C 301.11299999999983 269.4730000000001 304.43399999999986 266.85500000000013 305.23699999999985 266.1110000000001 C 305.0389999999999 262.4430000000001 304.79699999999985 258.5650000000001 304.5629999999999 254.8970000000001 C 304.5629999999999 254.89300000000011 304.5579999999999 254.8490000000001 304.5579999999999 254.8490000000001 C 302.9439999999999 229.1740000000001 300.93099999999987 197.2220000000001 309.10399999999987 178.89900000000011 C 333.56599999999986 124.0520000000001 385.44299999999987 119.78700000000012 400.7549999999999 119.78700000000012 C 401.1629999999999 119.78700000000012 407.42899999999986 119.72500000000012 407.42899999999986 119.72500000000012 C 407.7119999999999 119.72000000000013 408.01899999999983 119.71600000000012 408.3369999999999 119.71600000000012 C 423.69099999999986 119.71600000000012 475.6759999999999 123.98600000000012 500.1529999999999 178.86600000000013 C 508.3259999999999 197.20100000000014 506.3109999999999 229.18000000000012 504.6919999999999 254.88200000000012 L 504.6159999999999 256.11200000000014 C 504.3939999999999 259.60200000000015 504.18899999999985 262.90500000000014 504.01599999999985 266.10700000000014 C 504.7719999999998 266.80300000000017 507.81099999999986 269.20300000000015 513.9939999999998 269.44600000000014 C 519.2649999999998 269.24400000000014 525.3219999999998 267.5550000000001 531.9919999999998 264.43200000000013 C 534.0539999999999 263.4640000000001 536.3369999999999 263.26300000000015 537.8869999999998 263.26300000000015 C 540.2299999999998 263.26300000000015 542.6139999999998 263.71900000000016 544.6009999999999 264.5480000000002 L 544.7069999999999 264.58900000000017 C 550.3669999999998 266.5980000000002 554.0739999999998 270.61300000000017 554.1539999999999 274.8310000000002 C 554.2249999999999 278.7630000000002 551.3029999999999 284.6400000000002 536.9309999999999 290.3160000000002 C 535.459 290.8990000000002 533.5809999999999 291.4950000000002 531.597 292.1240000000002 C 523.645 294.6480000000002 511.64599999999996 298.4560000000002 508.02 307.0020000000002 C 506.04999999999995 311.63700000000017 506.698 317.3280000000002 509.94599999999997 323.91400000000016 C 509.98199999999997 323.98600000000016 510.013 324.05900000000014 510.04799999999994 324.13500000000016 C 511.04799999999994 326.47900000000016 535.2529999999999 381.6700000000002 589.257 390.5670000000002 C 591.5319999999999 390.9460000000002 593.165 392.9730000000002 593.035 395.2780000000002 C 592.987 396.10600000000017 592.7869999999999 396.9340000000002 592.437 397.74300000000017 C 589.148 405.44600000000014 572.522 411.83300000000014 544.373 416.18100000000015 C 541.731 416.58900000000017 540.618 420.85900000000015 539.096 427.84900000000016 C 538.466 430.73600000000016 537.825 433.56600000000014 536.95 436.54000000000013 C 536.1310000000001 439.33700000000016 534.3090000000001 440.7040000000001 531.383 440.7040000000001 L 530.942 440.7040000000001 C 529.037 440.7040000000001 526.338 440.3580000000001 522.934 439.6920000000001 C 516.9839999999999 438.5340000000001 510.311 437.45600000000013 501.825 437.45600000000013 C 496.877 437.45600000000013 491.756 437.89000000000016 486.601 438.7430000000001 C 476.128 440.48700000000014 467.18 446.8050000000001 457.70799999999997 453.5010000000001 C 444.443 462.88 429.436 473.488 407.001 473.488" stroke-linecap="round" />
</g>
		<g transform="matrix(1.55 0 0 1.55 -0.07 0)"  >
<path style="stroke: none; stroke-width: 1; stroke-dasharray: none; stroke-linecap: butt; stroke-dashoffset: 0; stroke-linejoin: miter; stroke-miterlimit: 4; fill: rgb(2,2,2); fill-rule: nonzero; opacity: 1;" vector-effect="non-scaling-stroke"  transform=" translate(-404.63, -296.6)" d="M 408.336 124.235 C 422.791 124.235 472.567 128.118 496.024 180.707 C 503.748 198.024 501.76800000000003 229.393 500.18 254.59199999999998 C 499.932 258.591 499.686 262.467 499.486 266.168 L 499.402 267.759 L 500.464 268.944 C 500.893 269.42 504.908 273.61600000000004 513.838 273.961 L 513.982 273.969 L 514.132 273.966 C 520.036 273.741 526.6859999999999 271.907 533.9079999999999 268.524 C 534.9719999999999 268.026 536.3879999999999 267.783 537.8859999999999 267.783 C 539.5929999999998 267.783 541.4069999999998 268.10400000000004 542.9029999999999 268.73400000000004 L 543.1289999999999 268.824 C 546.9159999999999 270.151 549.593 272.653 549.6339999999999 274.91700000000003 C 549.656 276.197 548.699 280.80800000000005 535.2749999999999 286.11100000000005 C 533.9629999999999 286.629 532.2359999999999 287.18000000000006 530.2339999999998 287.81100000000004 C 521.4979999999998 290.58500000000004 508.2999999999998 294.771 503.85799999999983 305.23800000000006 C 501.35699999999986 311.13400000000007 502.04199999999986 318.09200000000004 505.8919999999998 325.91600000000005 C 507.47599999999983 329.61300000000006 532.4119999999998 385.78100000000006 588.5229999999998 395.02700000000004 C 588.5119999999998 395.29300000000006 588.4439999999998 395.58400000000006 588.2939999999998 395.927 C 587.3429999999997 398.16700000000003 581.2979999999998 405.906 543.6819999999998 411.71000000000004 C 537.7959999999998 412.612 536.3539999999998 419.21000000000004 534.6819999999998 426.88000000000005 C 534.0779999999997 429.62600000000003 533.4639999999998 432.398 532.6199999999998 435.2610000000001 C 532.3619999999997 436.1260000000001 532.3139999999997 436.17500000000007 531.3869999999998 436.17500000000007 C 531.2589999999998 436.17500000000007 531.1089999999998 436.17500000000007 530.9449999999998 436.17500000000007 C 529.2769999999998 436.17500000000007 526.7449999999998 435.82900000000006 523.8099999999998 435.25300000000004 C 518.4649999999998 434.21200000000005 511.16299999999984 432.93500000000006 501.82799999999986 432.93500000000006 C 496.6179999999999 432.93500000000006 491.25099999999986 433.38800000000003 485.8659999999999 434.28700000000003 C 474.35499999999985 436.201 464.99399999999986 442.82200000000006 455.07999999999987 449.83000000000004 C 441.76599999999985 459.23800000000006 428.0049999999999 468.97300000000007 407.0089999999999 468.97300000000007 C 406.0919999999999 468.97300000000007 405.1969999999999 468.94200000000006 404.2999999999999 468.89700000000005 L 404.0639999999999 468.88700000000006 L 403.8269999999999 468.90500000000003 C 403.3119999999999 468.95000000000005 402.7929999999999 468.973 402.26299999999986 468.973 C 381.26999999999987 468.973 367.5029999999999 459.241 354.1949999999999 449.83000000000004 C 344.2789999999999 442.82200000000006 334.9129999999999 436.201 323.4039999999999 434.28700000000003 C 318.0239999999999 433.391 312.6519999999999 432.93500000000006 307.4449999999999 432.93500000000006 C 298.11199999999985 432.93500000000006 290.8009999999999 434.36300000000006 285.46699999999987 435.40600000000006 C 282.53199999999987 435.9800000000001 279.9909999999999 436.47200000000004 278.32799999999986 436.47200000000004 C 276.96599999999984 436.47200000000004 276.9399999999999 436.39200000000005 276.6519999999999 435.408 C 275.8079999999999 432.543 275.19099999999986 429.70500000000004 274.58999999999986 426.963 C 272.9139999999999 419.285 271.47099999999983 412.651 265.58799999999985 411.74800000000005 C 227.97499999999985 405.939 221.92899999999986 398.18700000000007 220.97499999999985 395.95300000000003 C 220.82599999999985 395.60100000000006 220.75899999999984 395.30100000000004 220.74399999999986 395.035 C 276.85399999999987 385.797 301.78499999999985 329.627 303.37399999999985 325.91600000000005 C 307.2309999999999 318.09800000000007 307.91499999999985 311.1410000000001 305.40599999999984 305.23800000000006 C 300.9639999999998 294.77700000000004 287.76799999999986 290.58500000000004 279.03799999999984 287.81600000000003 C 277.03099999999984 287.18100000000004 275.3029999999998 286.629 273.98999999999984 286.11100000000005 C 262.6539999999998 281.63200000000006 259.16699999999986 277.12000000000006 259.68499999999983 274.386 C 260.28599999999983 271.233 265.75199999999984 268.02700000000004 270.5219999999998 268.02700000000004 C 271.5939999999998 268.02700000000004 272.5339999999998 268.20000000000005 273.2289999999998 268.52500000000003 C 280.97599999999983 272.156 288.04799999999983 273.997 294.2509999999998 273.997 C 304.0019999999998 273.997 308.3419999999998 269.46000000000004 308.8079999999998 268.942 L 309.86499999999984 267.76 L 309.77999999999986 266.17699999999996 C 309.58299999999986 262.47799999999995 309.33999999999986 258.60299999999995 309.08399999999983 254.61199999999997 C 307.5009999999998 229.40699999999998 305.52099999999984 198.05899999999997 313.24199999999985 180.74099999999999 C 336.61199999999985 128.34499999999997 386.14499999999987 124.30599999999998 400.7669999999998 124.30599999999998 C 401.12699999999984 124.30599999999998 407.4839999999998 124.24099999999999 407.4839999999998 124.24099999999999 C 407.744 124.239 408.033 124.235 408.336 124.235 M 408.336 115.197 L 408.319 115.197 C 407.986 115.197 407.673 115.197 407.375 115.20100000000001 C 404.999 115.22500000000001 401.093 115.263 400.742 115.26700000000001 C 392.17600000000004 115.26700000000001 375.03700000000003 116.477 356.627 124.60300000000001 C 346.101 129.246 336.63300000000004 135.524 328.487 143.263 C 318.77500000000003 152.484 310.863 163.853 304.975 177.059 C 296.35200000000003 196.39499999999998 298.399 228.964 300.043 255.137 L 300.049 255.178 C 300.22499999999997 257.981 300.40999999999997 260.908 300.57899999999995 263.76 C 299.31399999999996 264.341 297.263 264.954 294.23999999999995 264.954 C 289.376 264.954 283.5919999999999 263.399 277.05299999999994 260.33500000000004 C 275.12899999999996 259.439 272.93299999999994 258.98600000000005 270.50999999999993 258.98600000000005 C 266.61699999999996 258.98600000000005 262.5129999999999 260.13200000000006 258.9529999999999 262.225 C 254.4739999999999 264.855 251.57999999999993 268.572 250.79399999999993 272.69300000000004 C 250.27599999999993 275.41900000000004 250.30099999999993 280.807 256.28599999999994 286.271 C 259.5779999999999 289.279 264.41399999999993 292.053 270.65599999999995 294.52000000000004 C 272.2939999999999 295.165 274.23799999999994 295.78100000000006 276.29699999999997 296.434 C 283.44199999999995 298.70500000000004 294.256 302.136 297.07599999999996 308.773 C 298.50499999999994 312.13800000000003 297.89 316.56600000000003 295.253 321.918 C 295.18399999999997 322.064 295.115 322.207 295.05199999999996 322.357 C 294.393 323.896 288.24499999999995 337.822 275.63399999999996 352.509 C 268.46799999999996 360.861 260.57499999999993 367.841 252.18699999999995 373.261 C 241.94899999999996 379.87800000000004 230.87099999999995 384.204 219.26399999999995 386.11600000000004 C 214.70599999999996 386.86400000000003 211.45099999999996 390.92500000000007 211.70499999999996 395.54 C 211.78299999999996 396.87 212.09499999999994 398.196 212.63599999999997 399.47900000000004 C 212.63999999999996 399.487 212.64499999999995 399.49500000000006 212.64899999999997 399.50200000000007 C 214.49199999999996 403.81300000000005 218.765 407.4750000000001 225.71199999999996 410.70500000000004 C 234.20099999999996 414.648 246.89699999999996 417.96500000000003 263.44399999999996 420.56000000000006 C 264.28 422.15000000000003 265.14799999999997 426.1460000000001 265.74899999999997 428.88200000000006 C 266.378 431.7900000000001 267.034 434.7800000000001 267.969 437.9560000000001 C 268.978 441.39700000000005 271.59499999999997 445.50900000000007 278.318 445.50900000000007 C 280.866 445.50900000000007 283.796 444.93500000000006 287.18899999999996 444.27700000000004 C 292.15799999999996 443.302 298.953 441.97200000000004 307.43399999999997 441.97200000000004 C 312.13599999999997 441.97200000000004 317.00899999999996 442.386 321.914 443.201 C 331.36899999999997 444.77500000000003 339.52 450.533 348.95099999999996 457.201 C 362.75499999999994 466.959 378.37999999999994 478.004 402.253 478.004 C 402.904 478.004 403.55699999999996 477.983 404.202 477.93800000000005 C 404.991 477.975 405.969 478.004 407.001 478.004 C 430.881 478.004 446.50199999999995 466.95500000000004 460.291 457.20500000000004 L 460.313 457.18500000000006 C 469.746 450.52500000000003 477.888 444.77500000000003 487.34 443.2010000000001 C 492.243 442.38700000000006 497.11499999999995 441.9720000000001 501.81899999999996 441.9720000000001 C 509.92099999999994 441.9720000000001 516.336 443.0050000000001 522.064 444.12200000000007 C 525.802 444.85800000000006 528.707 445.21200000000005 530.9359999999999 445.21200000000005 L 531.1539999999999 445.21600000000007 L 531.3799999999999 445.21600000000007 C 536.2969999999999 445.21600000000007 539.9099999999999 442.51700000000005 541.2889999999999 437.79400000000004 C 542.2049999999999 434.68500000000006 542.8589999999999 431.76500000000004 543.5039999999999 428.80800000000005 C 544.0659999999999 426.244 544.9639999999999 422.13400000000007 545.8 420.52700000000004 C 562.358 417.927 575.049 414.617 583.539 410.67500000000007 C 590.47 407.4600000000001 594.7379999999999 403.8020000000001 596.592 399.50900000000007 C 597.148 398.2220000000001 597.473 396.8880000000001 597.5459999999999 395.5300000000001 C 597.8069999999999 390.92300000000006 594.5469999999999 386.8540000000001 589.986 386.1060000000001 C 538.401 377.6040000000001 515.162 324.60000000000014 514.201 322.3480000000001 C 514.139 322.2000000000001 514.0690000000001 322.0530000000001 513.996 321.91000000000014 C 511.359 316.55600000000015 510.75 312.13300000000015 512.18 308.7620000000001 C 514.9939999999999 302.1310000000001 525.8009999999999 298.7000000000001 532.9509999999999 296.4300000000001 C 535.021 295.77800000000013 536.9719999999999 295.15800000000013 538.5969999999999 294.51600000000013 C 545.6359999999999 291.73600000000016 550.6669999999999 288.72000000000014 553.9859999999999 285.29500000000013 C 557.9499999999999 281.2120000000001 558.7219999999999 277.3000000000001 558.6739999999999 274.7400000000001 C 558.5529999999999 268.5460000000001 553.8179999999999 263.04200000000014 546.2859999999998 260.3470000000001 C 543.7419999999998 259.2950000000001 540.8409999999998 258.74000000000007 537.8869999999998 258.74000000000007 C 535.8759999999999 258.74000000000007 532.8979999999998 259.0160000000001 530.0789999999998 260.33200000000005 C 524.0439999999999 263.15600000000006 518.6379999999998 264.70000000000005 513.9969999999998 264.9200000000001 C 511.5289999999998 264.7950000000001 509.79799999999983 264.26000000000005 508.67699999999985 263.7490000000001 C 508.81799999999987 261.3330000000001 508.9739999999999 258.85100000000006 509.1349999999999 256.2630000000001 L 509.2019999999999 255.1550000000001 C 510.8549999999999 228.9650000000001 512.9089999999999 196.3710000000001 504.28199999999987 177.02100000000007 C 498.36899999999986 163.7680000000001 490.42899999999986 152.37000000000006 480.6779999999999 143.12900000000008 C 472.4999999999999 135.38500000000008 462.9999999999999 129.10800000000006 452.43599999999986 124.46800000000007 C 434.052 116.402 416.914 115.197 408.336 115.197" stroke-linecap="round" />
</g>
		<g transform="matrix(1.55 0 0 1.55 0 -0.07)"  >
<rect style="stroke: none; stroke-width: 1; stroke-dasharray: none; stroke-linecap: butt; stroke-dashoffset: 0; stroke-linejoin: miter; stroke-miterlimit: 4; fill: none; fill-rule: nonzero; opacity: 1;" vector-effect="non-scaling-stroke"  x="-257.1155" y="-257.115" rx="0" ry="0" width="514.231" height="514.23" />
</g>
</g>
</g>
</svg>