<?xml version="1.0" encoding="UTF-8" standalone="no" ?>
<!DOCTYPE svg PUBLIC "-//W3C//DTD SVG 1.1//EN" "http://www.w3.org/Graphics/SVG/1.1/DTD/svg11.dtd">
<svg xmlns="http://www.w3.org/2000/svg" xmlns:xlink="http://www.w3.org/1999/xlink" version="1.1" width="1080" height="1080" viewBox="0 0 1080 1080" xml:space="preserve">
<desc>Created with Fabric.js 5.2.4</desc>
<defs>
</defs>
<rect x="0" y="0" width="100%" height="100%" fill="transparent"></rect>
<g transform="matrix(1 0 0 1 540 540)" id="510e5e67-c4a5-406c-89fe-3b7de21e210f"  >
<rect style="stroke: none; stroke-width: 1; stroke-dasharray: none; stroke-linecap: butt; stroke-dashoffset: 0; stroke-linejoin: miter; stroke-miterlimit: 4; fill: rgb(255,255,255); fill-rule: nonzero; opacity: 1; visibility: hidden;" vector-effect="non-scaling-stroke"  x="-540" y="-540" rx="0" ry="0" width="1080" height="1080" />
</g>
<g transform="matrix(1 0 0 1 540 540)" id="29efd7ee-4efc-426a-b8e7-3ea913acfd0f"  >
</g>
<g transform="matrix(0 0 0 0 0 0)"  >
<g style=""   >
</g>
</g>
<g transform="matrix(1.82 0 0 1.82 540 540)"  >
<g style="" vector-effect="non-scaling-stroke"   >
		<g transform="matrix(1 0 0 1 -158.24 0)"  >
<path style="stroke: none; stroke-width: 1; stroke-dasharray: none; stroke-linecap: butt; stroke-dashoffset: 0; stroke-linejoin: miter; stroke-miterlimit: 4; fill: rgb(2,22,43); fill-rule: nonzero; opacity: 1;" vector-effect="non-scaling-stroke"  transform=" translate(-131.72, -128.17)" d="M 262 5 C 260 3.6 256.7 5.78 256.65 5.8100000000000005 C 254.92999999999998 6.8100000000000005 245.81999999999996 11.81 226.17 15.81 C 206.54999999999998 19.21 184.23999999999998 21.5 184.23999999999998 21.5 Q 168.39999999999998 22.74 153.67999999999998 24.5 C 155.14 18.06 155.67999999999998 10.85 152.52999999999997 6.73 C 149.12999999999997 2.2800000000000002 145.89 0.03000000000000025 142.89 0.03000000000000025 C 140.89 0.03000000000000025 138.05999999999997 1.0800000000000003 136.19 6.09 C 133.68 12.85 129.55 20.09 123.19 28.74 C 46.68 41.14 0.42 63.11 0 83.08 C -0.52 107.93 40.89 124.49 40.89 124.49 C 42.63 125.07 43.19 124.82 43.42 124.35 C 44.010000000000005 123.16999999999999 42.42 121.89999999999999 42.42 121.89999999999999 C 19.15 103.78 20.7 90.84 20.7 90.84 C 21.94 75.57 58.52 66 99.87 60.26 C 90.89689326003756 73.55546311702341 82.59646045589196 87.29272947080857 75.00000000000011 101.41999999999999 C 52.69 143.22 42 179.41 43.18 209 C 43.18 210.47 44.31 245.29 58.4 254.53 C 59.90797966801851 255.56431378868623 61.665633588103816 256.1755215369281 63.489999999999995 256.3 L 63.489999999999995 256.3 C 64.81717118983073 256.32795427543556 66.09352453316129 255.78977679733606 67 254.82 C 68.55 253.15 69.17 250.22 68.88 245.82 C 68.78999999999999 244.56 68.67 243.17 68.53999999999999 241.64 C 67.14999999999999 225.57999999999998 64.53999999999999 195.69 88.17999999999999 149.73 C 101.58 123.72999999999999 115.8 98.72999999999999 127.22999999999999 78.72999999999999 C 132.14999999999998 70.13 136.57999999999998 62.359999999999985 140.23 55.72999999999999 C 172.31 52.98999999999999 201.31 52.16999999999999 212.81 52.35999999999999 C 243.81 52.88999999999999 263.95 19.359999999999992 263.43 9.009999999999991 C 263.3 7.2 262.94 5.68 262 5 Z" stroke-linecap="round" />
</g>
		<g transform="matrix(1 0 0 1 51.41 22.6)"  >
<path style="stroke: none; stroke-width: 1; stroke-dasharray: none; stroke-linecap: butt; stroke-dashoffset: 0; stroke-linejoin: miter; stroke-miterlimit: 4; fill: rgb(2,22,43); fill-rule: nonzero; opacity: 1;" vector-effect="non-scaling-stroke"  transform=" translate(-341.36, -150.76)" d="M 579.91 205 C 579.763695817193 199.49645236211688 578.1590501534859 194.13037922864473 575.26 189.45 C 572.1899999999999 184.76 565.46 175.97 553.37 167.04999999999998 C 535.68 153.98999999999998 534.05 140.65999999999997 536.49 134.39999999999998 C 538.9300000000001 128.14 546.02 119.15999999999998 537.04 114.25999999999998 C 528.06 109.35999999999997 512.3499999999999 125.73999999999998 511.77 141.32999999999998 C 511.14566873110317 150.1454950692301 508.7657224510428 158.74730091001976 504.77 166.63 C 498.37 178.53 472.83 223.72 456.77 218.75 C 456.77 218.75 448.94 215.22 454.06 199.43 C 458.98 184.20000000000002 505.76 78.07000000000001 467.94 60.43000000000001 C 467.94 60.43000000000001 445.08 51.720000000000006 439.64 64.51 C 439.64 64.51 458.14 62.330000000000005 445.34999999999997 116.51 C 445.34999999999997 116.51 383.03999999999996 110.51 354.73999999999995 177.74 C 354.73999999999995 177.74 332.96999999999997 218.82 315.28999999999996 219.36 C 315.28999999999996 219.36 308.21 218 312.02 197.36 C 312.02 197.36 320.45 156.27 335.41999999999996 128.79000000000002 C 335.41999999999996 128.79000000000002 288.89 87.97000000000003 230.92999999999995 150.55 C 230.92999999999995 150.55 217.05999999999995 163.62 210.24999999999994 193.55 C 210.24999999999994 193.55 184.39999999999995 223.75 156.37999999999994 217.76000000000002 C 156.37999999999994 217.76000000000002 131.88999999999993 215.32000000000002 144.37999999999994 170.96000000000004 C 144.37999999999994 170.96000000000004 215.12999999999994 175.59000000000003 213.76999999999992 136.40000000000003 C 213.76999999999992 136.40000000000003 212.67999999999992 110.83000000000004 175.66999999999993 116.54000000000003 C 175.66999999999993 116.54000000000003 134.76999999999992 120.47000000000004 111.22999999999993 170.67000000000004 C 109.56999999999994 174.59000000000003 99.50999999999993 199.43000000000004 103.90999999999994 213.95000000000005 C 106.65999999999994 223.38000000000005 115.84999999999994 243.95000000000005 143.84999999999994 243.07000000000005 C 180.11999999999995 241.98000000000005 203.69999999999993 216.95000000000005 208.41999999999993 210.07000000000005 C 208.41999999999993 210.07000000000005 208.78999999999994 241.99000000000007 234.53999999999994 243.43000000000006 C 234.53999999999994 243.43000000000006 256.11999999999995 244.12000000000006 274.11999999999995 208.86000000000007 L 274.11999999999995 208.86000000000007 C 274.11999999999995 208.86000000000007 274.8299999999999 207.38000000000008 275.43999999999994 207.52000000000007 C 275.8879945416216 207.62896826227862 276.175933416748 208.0652392851975 276.09999999999997 208.52000000000007 L 276.09999999999997 208.52000000000007 C 275.36999999999995 214.52000000000007 272.97999999999996 245.07000000000005 299.46 243.76000000000008 C 299.46 243.76000000000008 322.67999999999995 247.40000000000006 348.79999999999995 203.14000000000007 C 348.79999999999995 203.14000000000007 347.71 244.85000000000008 374.19999999999993 243.39000000000007 C 374.19999999999993 243.39000000000007 398.2699999999999 244.09000000000006 415.6499999999999 207.71000000000006 L 415.6499999999999 207.71000000000006 C 415.6499999999999 207.71000000000006 416.2299999999999 206.63000000000005 416.87999999999994 207.01000000000008 L 416.87999999999994 207.01000000000008 C 417.2904510073004 207.37456425454494 417.45399142448 207.943061895217 417.29999999999995 208.47000000000008 C 416.11999999999995 214.41000000000008 411.94999999999993 242.97000000000008 439.29999999999995 243.47000000000008 L 439.29999999999995 243.47000000000008 C 439.29999999999995 243.47000000000008 446.17999999999995 243.85000000000008 450.21 242.39000000000007 L 450.21 242.39000000000007 C 461.57 239.08000000000007 485.81 224.90000000000006 512.74 165.64000000000007 C 512.9 165.23000000000008 514.38 161.55000000000007 514.98 161.55000000000007 C 515.33 161.55000000000007 515.54 161.90000000000006 515.8000000000001 162.55000000000007 L 515.8000000000001 162.55000000000007 C 515.8000000000001 162.55000000000007 522.8000000000001 178.55000000000007 532.73 190.64000000000007 C 532.73 190.64000000000007 534.22 192.33000000000007 534.9200000000001 193.09000000000006 L 534.9200000000001 193.09000000000006 C 544.0400000000001 204.03000000000006 547.9200000000001 212.22000000000006 535.47 217.39000000000007 C 533.2 218.14000000000007 510.31 225.39000000000007 508.3 213.97000000000008 C 508.3 213.97000000000008 495.94 218.0300000000001 493.41 226.2700000000001 C 492.25 230.0600000000001 492.28000000000003 237.0600000000001 498.25 240.2700000000001 C 498.5682926532194 240.49406165361142 498.9025137629456 240.69459431944713 499.25 240.8700000000001 L 499.47 240.97000000000008 C 501.45285755071365 241.8954654810899 503.5519421153372 242.54806548996325 505.71000000000004 242.91000000000008 C 513.01 244.44000000000008 526.71 245.2800000000001 547.36 238.83000000000007 C 549.17 238.31000000000006 550.87 237.74000000000007 552.51 237.15000000000006 L 553.08 236.95000000000007 L 553.08 236.95000000000007 C 566.34 231.95000000000007 573.73 224.95000000000007 577.08 217.67000000000007 L 577.08 217.67000000000007 C 579.3100000000001 213.30000000000007 579.74 207.84000000000006 579.83 205.85000000000008 L 579.83 205.85000000000008 C 579.83 205.69000000000008 579.83 205.5300000000001 579.83 205.36000000000007 L 579.83 205 Z M 174.33 128.64 C 190.39000000000001 121.83999999999999 188.21 132.98999999999998 188.21 132.98999999999998 C 186.58 156.65999999999997 149.3 160.2 149.3 160.2 C 149.3 160.2 158.28 135.44 174.33 128.64 Z M 276.92 183.06 C 264.92 218.16 252.16000000000003 212.44 252.16000000000003 212.44 C 234.16000000000003 204.28 253.52000000000004 165.1 253.52000000000004 165.1 C 278 119.11 302 126.73 302 126.73 C 296.24 134.35 288.89 148 276.92 183.06 Z M 394.47 212.72 C 372.94000000000005 209.84 392.02000000000004 168.63 392.02000000000004 168.63 C 415.69000000000005 120.75 442.08000000000004 126.46 442.08000000000004 126.46 C 417.59 208.91 394.47 212.72 394.47 212.72 Z" stroke-linecap="round" />
</g>
</g>
</g>
</svg>