<?xml version="1.0" encoding="UTF-8" standalone="no"?>
<!-- Created with Inkscape (http://www.inkscape.org/) -->

<svg
   width="102.95741mm"
   height="104.31162mm"
   viewBox="0 0 102.95741 104.31162"
   version="1.1"
   id="svg1"
   xmlns="http://www.w3.org/2000/svg"
   xmlns:svg="http://www.w3.org/2000/svg">
  <defs
     id="defs1" />
  <g
     id="layer1"
     transform="translate(-52.597797,-85.274304)">
    <path
       id="path15"
       d="m 80.402428,160.99991 v 22.73829 c -16.521464,-8.70339 -27.804631,-26.23739 -27.804631,-46.45169 0,-7.40749 1.515948,-14.45398 4.260012,-20.83814 h 21.050148 c -4.43287,5.7407 -7.08056,12.97268 -7.08056,20.83814 0,9.2395 3.655074,17.6117 9.575031,23.7134"
       style="fill:#161722;fill-opacity:1;fill-rule:nonzero;stroke:none;stroke-width:0.0966986" />
    <path
       id="path16"
       d="m 155.5552,137.28651 c 0,28.88871 -23.04546,52.29942 -51.4737,52.29942 -3.099,0 -6.140624,-0.28287 -9.095626,-0.81889 v -18.97616 c 2.887937,0.82842 5.938966,1.27694 9.095626,1.27694 18.35402,0 33.24478,-15.12639 33.24478,-33.78131 0,-9.27867 -3.68434,-17.69001 -9.65228,-23.79133 V 90.785781 c 16.56005,8.693888 27.8812,26.257209 27.8812,46.500729"
       style="fill:#161722;fill-opacity:1;fill-rule:nonzero;stroke:none;stroke-width:0.0966986" />
    <path
       id="path17"
       d="M 75.282622,85.274304 V 103.77492 H 94.98242 v 39.98678 h 18.26857 V 85.274304 H 75.282622"
       style="fill:#161722;fill-opacity:1;fill-rule:nonzero;stroke:none;stroke-width:0.0966986" />
  </g>
</svg>
